<svg width="320" height="146" viewBox="0 0 320 146" fill="none" xmlns="http://www.w3.org/2000/svg">
<path d="M157.847 0C185.691 0 208.352 21.5375 209.108 48.3834H209.128V117.636H106.566V48.3834H106.586C107.342 21.5375 130.003 0 157.847 0Z" fill="#D4DBED"/>
<path d="M157.846 6.19141C182.767 6.19141 203.049 25.4618 203.725 49.4818H203.743V111.445H111.949V49.4818H111.967C112.643 25.4618 132.925 6.19141 157.846 6.19141Z" fill="#E6EAF5"/>
<path d="M157.809 11.9707C180.079 11.9707 198.204 29.1436 198.808 50.5493H198.824V105.768H116.795V50.5493H116.811C117.415 29.1436 135.539 11.9707 157.809 11.9707Z" fill="#6D86D8"/>
<mask id="mask0_857_2290" style="mask-type:alpha" maskUnits="userSpaceOnUse" x="116" y="11" width="83" height="95">
<path d="M157.809 11.9707C180.079 11.9707 198.204 29.1436 198.808 50.5493H198.824V105.768H116.795V50.5493H116.811C117.415 29.1436 135.539 11.9707 157.809 11.9707Z" fill="#0000DA"/>
</mask>
<g mask="url(#mask0_857_2290)">
<ellipse cx="156.094" cy="88.0212" rx="46.4095" ry="51.1947" transform="rotate(17.9105 156.094 88.0212)" fill="#FFD502"/>
<path d="M179.555 69.3152C180.012 68.8782 180.737 68.8944 181.174 69.3512C181.611 69.8079 181.595 70.5326 181.138 70.9696L180.347 70.1424C181.115 70.9459 181.137 70.9692 181.137 70.9704C181.137 70.9706 181.136 70.9713 181.136 70.9717C181.135 70.9726 181.134 70.9735 181.133 70.9746C181.13 70.9769 181.127 70.9796 181.124 70.983C181.116 70.9898 181.107 70.999 181.095 71.0101C181.07 71.0325 181.037 71.0634 180.993 71.1021C180.906 71.1796 180.78 71.2885 180.616 71.4235C180.289 71.6935 179.808 72.0677 179.177 72.5016C177.916 73.3691 176.053 74.4775 173.616 75.4683C168.733 77.4536 161.567 78.9569 152.37 77.1328C143.9 75.4529 138.985 72.3365 136.172 69.5439C134.77 68.1518 133.905 66.8548 133.386 65.8847C133.127 65.4002 132.954 64.9981 132.844 64.7077C132.789 64.5626 132.75 64.4452 132.723 64.3593C132.709 64.3164 132.699 64.2813 132.691 64.2546C132.687 64.2412 132.684 64.2299 132.682 64.2207C132.681 64.2162 132.68 64.2121 132.679 64.2086C132.678 64.2069 132.678 64.2053 132.677 64.2038C132.677 64.2031 132.677 64.2019 132.677 64.2016C132.677 64.2005 132.698 64.1942 133.786 63.9168L132.676 64.1997C132.52 63.5872 132.89 62.964 133.503 62.8078C134.113 62.6524 134.733 63.0182 134.892 63.6258L134.894 63.63C134.895 63.6367 134.9 63.6516 134.907 63.674C134.921 63.7188 134.946 63.7939 134.985 63.8959C135.062 64.1 135.194 64.4119 135.404 64.8045C135.824 65.5886 136.556 66.6989 137.785 67.9194C140.236 70.3523 144.724 73.2826 152.816 74.8874C161.526 76.6149 168.237 75.1841 172.754 73.3477C175.017 72.4277 176.735 71.4031 177.88 70.6156C178.452 70.2219 178.88 69.888 179.161 69.6567C179.301 69.5411 179.405 69.4513 179.471 69.3926C179.504 69.3632 179.527 69.3416 179.541 69.3285C179.548 69.322 179.553 69.3174 179.555 69.3152Z" fill="#4B4B4B"/>
<path d="M101.416 67.6165C102.549 70.3684 121.139 80.0782 124.973 82.3282L123.503 88.1817C114.775 83.9162 95.4429 74.914 87.9343 73.0287C78.5486 70.6722 82.4701 61.0357 86.6612 59.2986C90.8523 57.5615 93.6938 67.6086 95.9936 64.4311C98.2934 61.2536 100.283 64.8645 101.416 67.6165Z" fill="#FFD502"/>
<path d="M220.562 68.3435C219.015 70.8857 199.141 77.5857 195.004 79.2119L195.545 85.2227C204.83 82.3668 225.328 76.4813 233.038 75.787C242.676 74.9191 240.302 64.7899 236.432 62.422C232.562 60.0541 228.192 69.537 226.414 66.0404C224.637 62.5438 222.109 65.8012 220.562 68.3435Z" fill="#FFD502"/>
<ellipse cx="164.2" cy="65.7516" rx="3.65201" ry="1.73786" transform="rotate(12.9725 164.2 65.7516)" fill="#4B4B4B"/>
<ellipse cx="147.302" cy="62.7512" rx="3.65201" ry="1.71744" transform="rotate(12.9725 147.302 62.7512)" fill="#4B4B4B"/>
</g>
<path d="M141.662 128.609C141.662 137.246 156.44 138.055 156.44 138.055H301.419C301.419 138.055 323.584 135.491 319.498 118.894C315.412 102.296 289.936 108.908 289.936 108.908C289.936 108.908 287.164 101.179 277.748 98.1124C268.332 95.0461 256.251 98.1124 256.251 98.1124C256.251 98.1124 246.125 82.7844 221.253 83.9434C196.381 85.1025 191.229 102.835 191.229 102.835C191.229 102.835 176.305 96.8979 164.225 104.05C152.144 111.202 153.565 118.894 153.565 118.894C153.565 118.894 141.662 119.973 141.662 128.609Z" fill="#D4DBED"/>
<path d="M0 127.937C-5.3247e-05 136.574 13.0775 137.384 13.0775 137.384H141.37C141.37 137.384 160.984 134.82 157.368 118.222C153.752 101.624 131.209 108.236 131.209 108.236C131.209 108.236 128.755 100.507 120.423 97.4406C112.091 94.3742 101.401 97.4406 101.401 97.4406C101.401 97.4406 92.4398 82.1125 70.4303 83.2716C48.4208 84.4306 43.8617 102.163 43.8617 102.163C43.8617 102.163 30.656 96.226 19.9656 103.378C9.27531 110.53 10.533 118.222 10.533 118.222C10.533 118.222 5.32474e-05 119.301 0 127.937Z" fill="#D4DBED"/>
<path d="M36.0039 133.506C36.0039 144.127 48.4401 145.123 48.4401 145.123H170.441C170.441 145.123 189.093 141.969 185.654 121.557C182.216 101.145 160.778 109.277 160.778 109.277C160.778 109.277 158.445 99.7713 150.522 96.0002C142.598 92.2292 132.432 96.0002 132.432 96.0002C132.432 96.0002 123.91 77.1495 102.98 78.575C82.0501 80.0004 77.7146 101.809 77.7146 101.809C77.7146 101.809 65.1565 94.5066 54.9904 103.302C44.8244 112.098 46.0204 121.557 46.0204 121.557C46.0204 121.557 36.004 122.885 36.0039 133.506Z" fill="#E6EAF5"/>
<path d="M214.212 85.3119C210.955 86.0353 190.1 75.1675 185.572 73.0851L181.132 78.1914C190.653 83.4817 211.333 95.4863 217.883 101.182C226.071 108.302 232.417 98.5146 231.327 93.5459C230.236 88.5773 219.173 92.4088 220.62 88.2556C222.067 84.1024 217.47 84.5884 214.212 85.3119Z" fill="#FFD502"/>
</svg>
